<svg id="Layer_1" data-name="Layer 1" xmlns="http://www.w3.org/2000/svg" viewBox="0 0 512 323.88"><defs><style>.cls-1{fill:#f33;}</style></defs><title>4</title><path class="cls-1" d="M486.88,205.23a9.1,9.1,0,0,1-9.09-9.09v-9.09H496v18.17ZM427,307.84a34.74,34.74,0,1,1,34.74-34.74A34.78,34.78,0,0,1,427,307.84Zm-282.19,0a34.74,34.74,0,1,1,34.74-34.74,34.78,34.78,0,0,1-34.74,34.74ZM435.57,50.24a17.66,17.66,0,0,1,17.64,17.64v.53h-78V50.24Zm-60.39,34.2h71.23l13.09,52.38H375.18V84.44Zm101,52.86-13.26-53a8,8,0,0,0,6.35-7.84V67.87A33.71,33.71,0,0,0,435.57,34.2H375.18V16.57A16.59,16.59,0,0,0,358.61,0H50.77A16.59,16.59,0,0,0,34.2,16.57V161.94a8,8,0,1,0,16,0V16.57a.53.53,0,0,1,.53-.53H358.61a.53.53,0,0,1,.53.53V161.94a8,8,0,0,0,16,0v-9.09h94.61A26.23,26.23,0,0,1,494.71,171H469.78a8,8,0,0,0-8,8v17.1a25.15,25.15,0,0,0,25.12,25.12H496v35.27H475a50.76,50.76,0,0,0-96,0h-3.86V196.14a8,8,0,1,0-16,0v60.39H192.82a50.76,50.76,0,0,0-96,0H50.77a.53.53,0,0,1-.53-.53V238.36H85a8,8,0,1,0,0-16H8a8,8,0,1,0,0,16H34.2V256a16.59,16.59,0,0,0,16.57,16.57h43.3c0,.18,0,.36,0,.53a50.77,50.77,0,1,0,101.55,0c0-.18,0-.36,0-.53H376.26c0,.18,0,.36,0,.53a50.77,50.77,0,1,0,101.54,0c0-.18,0-.36,0-.53H504a8,8,0,0,0,8-8V179a42.29,42.29,0,0,0-35.84-41.74Z"/><path class="cls-1" d="M144.83,256.53A16.57,16.57,0,1,0,161.4,273.1a16.59,16.59,0,0,0-16.57-16.57Z"/><path class="cls-1" d="M427,256.53a16.57,16.57,0,1,0,16.57,16.57A16.59,16.59,0,0,0,427,256.53Z"/><path class="cls-1" d="M205.23,230.35a8,8,0,0,0,8,8H333a8,8,0,1,0,0-16H213.24a8,8,0,0,0-8,8Z"/><path class="cls-1" d="M25.12,204.16H127.73a8,8,0,0,0,0-16H25.12a8,8,0,0,0,0,16Z"/><path class="cls-1" d="M267.43,79.31,196.14,150.6l-37.09-37.09a8,8,0,1,0-11.34,11.34l42.76,42.76a8,8,0,0,0,11.34,0l77-77a8,8,0,1,0-11.34-11.34Z"/></svg>